<?xml version="1.0" encoding="UTF-8" standalone="no"?>
<!DOCTYPE svg PUBLIC "-//W3C//DTD SVG 1.1//EN" "http://www.w3.org/Graphics/SVG/1.1/DTD/svg11.dtd">
<svg width="100%" height="100%" viewBox="0 0 1043 437" version="1.1" xmlns="http://www.w3.org/2000/svg" xmlns:xlink="http://www.w3.org/1999/xlink" xml:space="preserve" xmlns:serif="http://www.serif.com/" style="fill-rule:evenodd;clip-rule:evenodd;stroke-linejoin:round;stroke-miterlimit:2;">
    <g transform="matrix(1,0,0,1,44.8468,20.7583)">
        <g transform="matrix(0.992919,-0.118797,0.118797,0.992919,-819.535,-88.2787)">
            <path d="M1374.08,428.97C1374.08,370.896 1332.35,279.09 1221.07,279.09C1159.87,279.09 1093.79,308.301 1071.19,373.331C1063.89,394.891 1060.41,415.408 1060.41,434.534C1060.41,521.124 1129.96,579.546 1209.25,579.546C1279.84,579.546 1374.08,524.602 1374.08,428.97ZM1221.07,502.693C1185.25,502.693 1151.87,472.787 1151.87,428.623C1151.87,396.977 1169.26,353.857 1219.68,353.857C1268.02,353.857 1286.45,394.195 1286.45,428.623C1286.45,467.918 1262.45,502.693 1221.07,502.693Z" style="fill:rgb(200,141,62);fill-rule:nonzero;stroke:black;stroke-width:8.5px;"/>
        </g>
        <g transform="matrix(0.994875,-0.101117,0.101117,0.994875,-917.191,-53.5957)">
            <path d="M1786.16,573.982C1790.68,573.982 1794.51,570.157 1794.51,565.636L1794.51,294.044C1794.51,289.523 1790.68,285.698 1786.16,285.698L1709.31,285.698C1704.79,285.698 1700.96,289.523 1700.96,294.044L1700.96,565.636C1700.96,570.157 1704.79,573.982 1709.31,573.982L1786.16,573.982Z" style="fill:rgb(200,141,62);fill-rule:nonzero;stroke:black;stroke-width:8.5px;"/>
        </g>
        <g transform="matrix(0.972104,0.234549,-0.234549,0.972104,-590.389,-426.949)">
            <path d="M770.039,555.203C770.735,568.418 777.342,573.982 788.818,576.764C791.252,577.112 794.034,577.459 796.816,578.155C813.16,580.937 829.504,582.328 845.501,582.328C944.262,582.328 1030.5,528.427 1030.5,430.014C1030.5,410.54 1027.03,388.979 1019.38,365.68C999.554,304.824 938.002,279.438 879.233,279.438C858.715,279.438 838.198,282.568 820.115,288.48L764.475,291.609C759.954,291.609 756.477,295.782 756.477,300.303L770.039,555.203ZM846.892,356.639C854.89,354.552 863.584,353.161 871.93,353.161C936.263,353.161 936.611,422.015 936.611,427.927C936.611,472.091 903.227,500.955 862.888,500.955C860.106,500.955 857.324,500.955 854.542,500.607L846.892,356.639Z" style="fill:rgb(89,46,13);fill-rule:nonzero;stroke:black;stroke-width:8.5px;"/>
        </g>
        <g transform="matrix(0.992329,-0.123624,0.123624,0.992329,-888.054,-49.7053)">
            <path d="M1660.97,551.726C1665.84,549.639 1667.23,546.162 1667.23,542.685C1667.23,527.036 1607.07,414.017 1585.51,414.017C1582.03,414.017 1578.9,415.756 1575.43,417.147L1531.26,433.143C1571.6,404.28 1632.81,360.812 1647.41,351.075C1651.24,348.64 1653.32,345.511 1653.32,342.033C1653.32,339.599 1652.28,337.165 1650.19,334.73L1612.64,288.132C1609.51,284.307 1606.72,282.916 1603.94,282.916C1588.29,282.916 1502.4,358.377 1498.23,362.203L1498.23,293.696C1498.23,289.523 1494.75,286.393 1490.92,286.393L1417.9,286.393C1413.72,286.393 1410.59,289.523 1410.59,293.696L1410.59,566.679C1410.59,570.504 1413.72,573.982 1417.9,573.982L1490.92,573.982C1494.75,573.982 1498.23,570.504 1498.23,566.679L1498.23,456.443L1512.48,446.358C1512.48,446.706 1512.83,447.401 1513.18,447.749C1527.09,465.484 1580.3,553.117 1594.55,572.939C1596.99,576.068 1599.42,577.459 1602.2,577.459C1604.99,577.459 1607.77,576.068 1611.25,574.677L1660.97,551.726Z" style="fill:rgb(89,46,13);fill-rule:nonzero;stroke:black;stroke-width:8.5px;"/>
        </g>
    </g>
    <g id="Artboard1" transform="matrix(1.10114,0,0,1.24303,-311.545,-589.823)">
        <rect x="282.93" y="474.505" width="946.66" height="350.874" style="fill:none;"/>
    </g>
</svg>
